# ProBuilder 5.0.3
# https://unity3d.com/unity/features/worldbuilding/probuilder
# 19/07/2024 2:39:37 p.m.

mtllib ./LevelBase.mtl
o LevelBase

g LevelBase
v -28.18615 0.5185234 -56.84432
v -13.91267 0.5185234 -56.84432
v -13.91267 0.5185234 -48.06363
v -28.18615 0.5185234 -48.06363
v 0.3608161 0.5185234 -56.84432
v 0.3608161 0.5185234 -48.06363
v -53.19711 20.02184 -56.84432
v -42.82026 20.02184 -56.84432
v -42.82026 20.02184 -48.06363
v -53.19711 20.02184 -48.06363
v -42.45963 0.5185234 -56.84432
v -42.45963 0.5185234 -48.06363
v 28.90778 0.5185234 -56.84432
v 43.18126 0.5185234 -56.84432
v 43.18126 0.5185234 -48.06363
v 28.90778 0.5185234 -48.06363
v 43.54189 20.02184 -56.84432
v 53.91873 20.02184 -56.84432
v 53.91873 20.02184 -48.06363
v 43.54189 20.02184 -48.06363
v 14.6343 0.5185234 -56.84432
v 14.6343 0.5185234 -48.06363
v -42.45963 7.48971 -56.84432
v -42.45963 7.48971 -48.06363
v 43.18126 7.48971 -48.06363
v 43.18126 7.48971 -56.84432
v -42.81998 15.59082 -41.25595
v -53.19711 15.59091 -41.25595
v -42.45933 3.058519 -41.25595
v -28.18615 -3.912405 -41.25595
v -42.45942 -3.91247 -41.25595
v -13.91267 -3.912405 -41.25595
v 0.3608183 -3.912405 -41.25595
v 14.6343 -3.912405 -41.25595
v 28.90778 -3.912405 -41.25595
v 43.18105 -3.91247 -41.25595
v 43.54161 15.59082 -41.25595
v 43.18097 3.058519 -41.25595
v 53.91873 15.59091 -41.25595
v -42.81969 15.59093 48.65551
v -53.19712 15.59112 48.65555
v -42.45902 3.058489 48.65551
v -28.18616 -3.912199 48.65555
v -42.4592 -3.912325 48.65555
v -13.91267 -3.912199 48.65555
v 0.3608161 -3.912199 48.65555
v 14.63431 -3.912199 48.65555
v 28.90778 -3.912199 48.65555
v 43.18085 -3.912325 48.65555
v 43.54132 15.59093 48.65551
v 43.18066 3.058489 48.65551
v 53.91873 15.59112 48.65555
v -42.8194 20.21666 51.96988
v -53.19712 20.21694 51.96991
v 53.91873 20.21694 51.96991
v 43.54105 20.21666 51.96988
v 53.91874 20.21694 58.35246
v 43.54105 20.21666 58.35241
v 53.91874 20.21694 64.73501
v 43.54105 20.21666 64.73494
v 43.54122 13.05079 56.69521
v 43.54111 13.05078 64.7349
v 43.18056 0.518342 56.69521
v 43.18046 0.5183297 64.7349
v 28.90778 3.058689 48.65565
v 28.90778 0.5185547 56.69531
v 28.90778 0.5185547 64.73497
v 14.63431 3.058689 48.65565
v 14.63431 0.5185547 56.69531
v 14.63431 0.5185547 64.73497
v 0.3608126 0.5185547 64.73497
v 0.3608126 0.5185547 56.69531
v -13.91267 3.058689 48.65565
v 0.3608126 3.058689 48.65565
v -13.91268 0.5185547 56.69531
v -13.91268 0.5185547 64.73497
v -28.18616 3.058689 48.65565
v -28.18616 0.5185547 56.69531
v -28.18616 0.5185547 64.73497
v -42.45892 0.518342 56.69521
v -42.45881 0.5183297 64.7349
v -42.81958 13.05079 56.69521
v -42.81947 13.05078 64.7349
v -42.81941 20.21666 58.35241
v -42.81941 20.21666 64.73494
v -53.19711 20.21694 58.35246
v -53.19711 20.21694 64.73501
v -42.45963 4.949426 -48.06362
v -42.45963 4.949426 -56.84431
v -42.45937 0.5183341 -41.25595
v -42.45911 0.5183917 48.65554
v -28.18616 0.5185547 48.65561
v -13.91268 0.5185547 48.65561
v 0.3608119 0.5185547 48.65561
v 43.18126 4.949426 -56.84431
v 43.18126 4.949426 -48.06362
v 43.18102 0.5183341 -41.25595
v 43.18075 0.5183917 48.65554
v 28.90778 0.5185547 48.65561
v 14.63431 0.5185547 48.65561

vt 12.42242 -20.92359
vt 7.655162 -20.92359
vt 7.655162 -17.03089
vt 12.42242 -17.03089
vt 2.887906 -20.92359
vt 2.887906 -17.03089
vt 20.77592 -20.92359
vt 17.31012 -20.92359
vt 17.31012 -17.03089
vt 20.77592 -17.03089
vt 17.18967 -20.92359
vt 17.18967 -17.03089
vt -6.646606 -20.92359
vt -11.41386 -20.92359
vt -11.41386 -17.03089
vt -6.646606 -17.03089
vt -11.53431 -20.92359
vt -15.00011 -20.92359
vt -15.00011 -17.03089
vt -11.53431 -17.03089
vt -1.87935 -20.92359
vt -1.87935 -17.03089
vt 20.92359 4.046757
vt 17.03089 4.046757
vt 20.92359 9.603874
vt 17.03089 9.603874
vt -17.03089 3.921562
vt -20.92359 3.921562
vt -17.03089 9.478679
vt -20.92359 9.478679
vt 17.31012 -19.30918
vt 20.77592 -19.30918
vt 17.31003 -15.70818
vt 20.77592 -15.7082
vt 16.78721 4.051879
vt 16.78552 9.608995
vt 13.7695 2.086958
vt 13.7678 7.644148
vt 12.42242 -14.59261
vt 17.18967 -14.59261
vt 12.42242 -10.99163
vt 17.1896 -10.99161
vt 7.655162 -14.59261
vt 7.655162 -10.99163
vt 2.887906 -14.59261
vt 2.887905 -10.99163
vt -1.87935 -14.59261
vt -1.879352 -10.99163
vt -6.646606 -14.59261
vt -6.646606 -10.99163
vt -11.41386 -14.59255
vt -11.41379 -10.99155
vt -16.86681 9.483827
vt -16.86851 3.926709
vt -13.8491 7.518979
vt -13.85079 1.961788
vt -15.00011 -19.30919
vt -11.53431 -19.30919
vt -15.00011 -15.70821
vt -11.53421 -15.70819
vt 17.31011 -14.01286
vt 20.77601 -14.01286
vt 17.31002 25.84717
vt 20.77601 25.84718
vt 14.01292 2.082769
vt 14.01292 7.639959
vt -25.84711 2.082756
vt -25.84711 7.640012
vt 12.42243 -14.01287
vt 17.18961 -14.01287
vt 12.42243 25.84717
vt 17.18954 25.84717
vt 7.655162 -14.01287
vt 7.655164 25.84717
vt 2.887905 -14.01287
vt 2.887906 25.84717
vt -1.879352 -14.01287
vt -1.879353 25.84717
vt -6.646606 -14.01287
vt -6.646606 25.84717
vt -11.4138 -14.01287
vt -11.41373 25.84717
vt -14.0129 7.514758
vt -14.0129 1.957568
vt 25.84713 7.514811
vt 25.84713 1.957554
vt -15.00019 -14.01285
vt -11.5343 -14.01285
vt -15.00019 25.84719
vt -11.5342 25.84718
vt 17.30961 20.96117
vt 20.77561 20.96127
vt 17.3095 23.48393
vt 20.77559 23.48406
vt -14.99979 20.96106
vt -11.5338 20.96096
vt -14.99977 23.48385
vt -11.53369 23.48372
vt -11.53436 27.3165
vt -15.00044 27.31651
vt -15.00045 30.14606
vt -11.53436 30.14604
vt -15.00045 32.97561
vt -11.53436 32.97557
vt 25.84716 7.266377
vt 27.3165 9.317077
vt 30.14604 9.317077
vt 29.41136 6.140267
vt 32.97558 9.317077
vt 32.97556 6.140262
vt 25.88599 1.955646
vt 25.8864 7.512902
vt 29.45058 6.386792
vt 29.45017 0.8295346
vt 33.01476 6.386522
vt 33.01435 0.8292646
vt -6.646569 25.28448
vt -11.41362 25.28441
vt -11.41361 28.97861
vt -6.646594 28.97865
vt -11.41358 32.50117
vt -6.646594 32.5012
vt -1.879354 25.2845
vt -1.879354 28.97868
vt -1.879354 32.50122
vt -1.879354 29.4114
vt -1.879354 32.97559
vt 2.887907 32.97559
vt 2.887907 29.4114
vt 7.655164 25.2845
vt 2.887907 25.2845
vt 2.887907 28.97868
vt 7.655165 28.97868
vt 2.887907 32.50122
vt 7.655165 32.50122
vt 12.42242 25.2845
vt 12.42242 28.97868
vt 12.42242 32.50122
vt 17.18943 25.28439
vt 17.18942 28.97859
vt 17.18939 32.50114
vt -25.90611 7.638106
vt -25.9057 2.08085
vt -29.46988 0.9547383
vt -29.47029 6.511996
vt -33.03406 0.9544683
vt -33.03447 6.511726
vt -27.31623 9.3168
vt -25.84689 7.2661
vt -29.41109 6.13999
vt -30.14577 9.3168
vt -32.97529 6.139985
vt -32.9753 9.3168
vt 20.77626 27.31651
vt 17.31017 27.3165
vt 17.31017 30.14604
vt 20.77626 30.14606
vt 17.31017 32.97557
vt 20.77626 32.97561
vt 20.92359 0.5845348
vt 17.03089 0.5845348
vt 17.03088 2.548866
vt 20.92359 2.548866
vt 17.03089 3.675038
vt 20.92359 3.675038
vt 17.03141 3.675038
vt 17.0314 2.548866
vt 14.01339 0.5844509
vt 14.01339 1.710579
vt 17.03141 0.5845348
vt 14.01339 -1.379837
vt 14.01291 1.710396
vt 14.01291 0.5842677
vt -25.84713 0.5842932
vt -25.84712 1.710383
vt 14.01291 -1.38002
vt -25.84713 -1.379956
vt 17.18945 -1.379938
vt 12.42234 -1.379882
vt 12.42234 0.584383
vt 17.18942 0.5843107
vt 12.42234 1.710489
vt 17.18939 1.7104
vt 12.42242 -1.379331
vt 7.655164 -1.379331
vt 7.655165 0.5849339
vt 12.42242 0.5849339
vt 7.655164 1.71104
vt 12.42242 1.71104
vt 2.887906 -1.379331
vt 2.887907 0.5849339
vt 2.887907 1.71104
vt -17.03089 0.5845327
vt -20.92359 0.5845327
vt -20.92359 2.548864
vt -17.03088 2.548864
vt -20.92359 3.675036
vt -17.03089 3.675036
vt -17.03125 0.584427
vt -17.03124 2.548759
vt -14.01323 0.5843431
vt -14.01323 -1.379945
vt -17.03125 3.674931
vt -14.01323 1.710471
vt -14.01289 -1.380083
vt -14.01289 0.5842048
vt 25.84715 0.5842303
vt 25.84715 -1.380019
vt -14.01289 1.710333
vt 25.84714 1.71032
vt -1.879353 -1.379331
vt -6.646606 -1.379331
vt -6.646606 0.5849339
vt -1.879354 0.5849339
vt -6.646606 1.71104
vt -1.879354 1.71104
vt -6.646358 -1.379331
vt -11.41347 -1.379387
vt -11.41344 0.5848616
vt -6.646358 0.5849339
vt -11.41341 1.710951
vt -6.646358 1.71104
vt -29.4114 0.5845481
vt -25.84722 1.710654
vt -25.8472 0.5845481
vt 29.4114 0.5845497
vt 25.84722 1.710656
vt 25.8472 0.5845497

vn 0 2.25568 5.008615E-17
vn 2.993364 0.04889128 1.085604E-18
vn -2.993364 0.04889011 1.085579E-18
vn 0 1.890494 1.230498
vn 2.934509E-05 1.890505 1.23048
vn 2.993067 0.04888642 0.03174662
vn -2.993067 0.04888526 0.03174967
vn 2.983026E-05 1.313783 -1.833593
vn -2.994067 -7.077846E-05 -4.469396E-05
vn -2.993294 0.04889277 0.01542598
vn 6.490037E-05 2.150878 0.6795712
vn 2.993294 0.04889432 0.01542405
vn 2.994067 -5.706141E-05 -2.286544E-05
vn 3.402483E-11 -2.190337E-06 -2.25568

usemtl probbuildM
f 94/225/13 74/224/13 72/223/13
f 69/226/9 68/227/9 100/228/9
f 2/2/1 1/1/1 4/4/1
f 4/4/1 3/3/1 2/2/1
f 6/6/1 5/5/1 2/2/1
f 2/2/1 3/3/1 6/6/1
f 9/9/1 8/8/1 7/7/1
f 7/7/1 10/10/1 9/9/1
f 4/4/1 1/1/1 11/11/1
f 11/11/1 12/12/1 4/4/1
f 15/15/1 14/14/1 13/13/1
f 13/13/1 16/16/1 15/15/1
f 19/19/1 18/18/1 17/17/1
f 17/17/1 20/20/1 19/19/1
f 22/22/1 21/21/1 5/5/1
f 5/5/1 6/6/1 22/22/1
f 16/16/1 13/13/1 21/21/1
f 21/21/1 22/22/1 16/16/1
f 9/26/2 24/24/2 23/23/2
f 23/23/2 8/25/2 9/26/2
f 17/30/3 26/28/3 25/27/3
f 25/27/3 20/29/3 17/30/3
f 27/33/4 9/31/4 10/32/4
f 10/32/4 28/34/5 27/33/4
f 29/37/6 24/35/6 9/36/6
f 9/36/6 27/38/6 29/37/6
f 30/41/5 4/39/5 12/40/5
f 12/40/5 31/42/4 30/41/5
f 32/44/5 3/43/5 4/39/5
f 4/39/5 30/41/5 32/44/5
f 33/46/5 6/45/5 3/43/5
f 3/43/5 32/44/5 33/46/5
f 34/48/5 22/47/5 6/45/5
f 6/45/5 33/46/5 34/48/5
f 35/50/5 16/49/5 22/47/5
f 22/47/5 34/48/5 35/50/5
f 36/52/5 15/51/4 16/49/5
f 16/49/5 35/50/5 36/52/5
f 37/55/7 20/53/7 25/54/7
f 25/54/7 38/56/7 37/55/7
f 39/59/4 19/57/5 20/58/4
f 20/58/4 37/60/4 39/59/4
f 40/63/1 27/61/1 28/62/1
f 28/62/1 41/64/1 40/63/1
f 42/67/2 29/65/2 27/66/2
f 27/66/2 40/68/2 42/67/2
f 43/71/1 30/69/1 31/70/1
f 31/70/1 44/72/1 43/71/1
f 45/74/1 32/73/1 30/69/1
f 30/69/1 43/71/1 45/74/1
f 46/76/1 33/75/1 32/73/1
f 32/73/1 45/74/1 46/76/1
f 47/78/1 34/77/1 33/75/1
f 33/75/1 46/76/1 47/78/1
f 48/80/1 35/79/1 34/77/1
f 34/77/1 47/78/1 48/80/1
f 49/82/1 36/81/1 35/79/1
f 35/79/1 48/80/1 49/82/1
f 50/85/3 37/83/3 38/84/3
f 38/84/3 51/86/3 50/85/3
f 52/89/1 39/87/1 37/88/1
f 37/88/1 50/90/1 52/89/1
f 53/93/8 40/91/8 41/92/8
f 41/92/8 54/94/8 53/93/8
f 55/97/8 52/95/8 50/96/8
f 50/96/8 56/98/8 55/97/8
f 55/100/1 56/99/1 58/102/1
f 58/102/1 57/101/1 55/100/1
f 57/101/1 58/102/1 60/104/1
f 60/104/1 59/103/1 57/101/1
f 50/105/9 61/108/9 58/107/9
f 58/107/9 56/106/9 50/105/9
f 61/108/9 62/110/9 60/109/9
f 60/109/9 58/107/9 61/108/9
f 51/111/10 63/114/10 61/113/10
f 61/113/10 50/112/10 51/111/10
f 63/114/3 64/116/3 62/115/3
f 62/115/3 61/113/3 63/114/3
f 51/118/11 65/117/11 66/120/11
f 66/120/11 63/119/11 51/118/11
f 63/119/1 66/120/1 67/122/1
f 67/122/1 64/121/1 63/119/1
f 66/120/11 65/117/11 68/123/11
f 68/123/11 69/124/11 66/120/11
f 67/122/1 66/120/1 69/124/1
f 69/124/1 70/125/1 67/122/1
f 70/127/1 69/126/1 72/129/1
f 72/129/1 71/128/1 70/127/1
f 72/132/11 74/131/11 73/130/11
f 73/130/11 75/133/11 72/132/11
f 71/134/1 72/132/1 75/133/1
f 75/133/1 76/135/1 71/134/1
f 75/133/11 73/130/11 77/136/11
f 77/136/11 78/137/11 75/133/11
f 76/135/1 75/133/1 78/137/1
f 78/137/1 79/138/1 76/135/1
f 78/137/11 77/136/11 42/139/11
f 42/139/11 80/140/11 78/137/11
f 79/138/1 78/137/1 80/140/1
f 80/140/1 81/141/1 79/138/1
f 80/144/12 42/143/12 40/142/12
f 40/142/12 82/145/12 80/144/12
f 81/146/2 80/144/2 82/145/2
f 82/145/2 83/147/2 81/146/2
f 82/150/13 40/149/13 53/148/13
f 53/148/13 84/151/13 82/150/13
f 83/152/13 82/150/13 84/151/13
f 84/151/13 85/153/13 83/152/13
f 84/156/1 53/155/1 54/154/1
f 54/154/1 86/157/1 84/156/1
f 85/158/1 84/156/1 86/157/1
f 86/157/1 87/159/1 85/158/1
f 89/163/13 88/162/13 12/161/13
f 12/161/13 11/160/13 89/163/13
f 23/165/13 24/164/13 88/162/13
f 88/162/13 89/163/13 23/165/13
f 90/168/13 88/167/13 24/166/13
f 24/166/13 29/169/13 90/168/13
f 31/171/13 12/170/13 88/167/13
f 88/167/13 90/168/13 31/171/13
f 91/174/13 90/173/13 29/172/13
f 29/172/13 42/175/13 91/174/13
f 31/176/13 90/173/13 91/174/13
f 91/174/13 44/177/13 31/176/13
f 43/179/14 44/178/14 91/181/14
f 91/181/14 92/180/14 43/179/14
f 92/180/14 91/181/14 42/183/14
f 42/183/14 77/182/14 92/180/14
f 92/187/14 93/186/14 45/185/14
f 45/185/14 43/184/14 92/187/14
f 77/189/14 73/188/14 93/186/14
f 93/186/14 92/187/14 77/189/14
f 45/185/14 93/186/14 94/191/14
f 94/191/14 46/190/14 45/185/14
f 93/186/14 73/188/14 74/192/14
f 74/192/14 94/191/14 93/186/14
f 95/195/9 14/194/9 15/193/9
f 15/193/9 96/196/9 95/195/9
f 26/197/9 95/195/9 96/196/9
f 96/196/9 25/198/9 26/197/9
f 96/200/9 15/199/9 36/202/9
f 36/202/9 97/201/9 96/200/9
f 25/203/9 96/200/9 97/201/9
f 97/201/9 38/204/9 25/203/9
f 36/205/9 49/208/9 98/207/9
f 98/207/9 97/206/9 36/205/9
f 38/209/9 97/206/9 98/207/9
f 98/207/9 51/210/9 38/209/9
f 48/212/14 47/211/14 100/214/14
f 100/214/14 99/213/14 48/212/14
f 99/213/14 100/214/14 68/216/14
f 68/216/14 65/215/14 99/213/14
f 49/218/14 48/217/14 99/220/14
f 99/220/14 98/219/14 49/218/14
f 98/219/14 99/220/14 65/222/14
f 65/222/14 51/221/14 98/219/14
f 47/211/14 46/190/14 94/191/14
f 94/191/14 100/214/14 47/211/14
f 94/76/1 72/129/1 69/126/1
f 69/126/1 100/78/1 94/76/1

